# xmcd
# Track frame offsets:
# 150
# 19933
# 35958
# 50830
# 67423
# 89745
# 106113
# 123650
# 167870
# 186080
# 206548
#
# Disc length: 2951 seconds
# Revision: 0
# Processed by: cddbd v1.5.2PL0 Copyright (c) Steve Scherf et al.
# Submitted via: VisiTrax 2.11.1.266 - For more info visit www.synapsa.com
#
DISCID=ad0b850b
DTITLE=Slim Dusty - The Entertainer (Live At The Sydney Opera House) Disc 1
DYEAR=1978
DGENRE=Australian Country
TTITLE0=Slim Dusty - Meldy: Travellin' Country Band, Pickin' and Singin'
TTITLE1=Slim Dusty - About This Hat
TTITLE2=Slim Dusty - Pushin' Time
TTITLE3=Joy McKean - Moving On
TTITLE4=Joy McKean - Medley: When It's Lamplighting Time In The Valley, Red Ri
TTITLE4=ver Valley
TTITLE5=Joy McKean - Kelly's Offsider
TTITLE6=Joy McKean - Walk Right In
TTITLE7=Slim Dusty - Meldey: I Must Have Good Terbaccy When I Smoke, When Th
TTITLE7=e Rain tumbles Down In July, Middleton's Rouseabout, Trumby, Drover'
TTITLE7=s Cook, Pub With No Beer
TTITLE8=Slim Dusty - The Front Row
TTITLE9=Slim Dusty - Three Rivers Hotel
TTITLE10=Slim Dusty - Indian Pacific
EXTD=
EXTT0=
EXTT1=
EXTT2=
EXTT3=
EXTT4=
EXTT5=
EXTT6=
EXTT7=
EXTT8=
EXTT9=
EXTT10=
PLAYORDER=
